# xmcd CD database file
#
# Track frame offsets:
#	190
#	13695
#	31532
#	38307
#	69037
#	77212
#	96327
#	108000
#	134250
#	150555
#	165502
#	184712
#	199155
#	216345
#	225315
#
# Disc length: 3466 seconds
#
# Revision: 0
# Processed by: cddbd v1.5.1PL0 Copyright (c) Steve Scherf et al.
# Submitted via: CDex 1.51
#
DISCID=a90d880f
DTITLE=Pierre  Favre - Pierre Favre
DYEAR=1997
DGENRE=Jazz
TTITLE0=Les jeux sont faits
TTITLE1=Stampede
TTITLE2=Una cose e una cosa
TTITLE3=Yellow
TTITLE4=Anedote
TTITLE5=Lucas Delight
TTITLE6=Zitronen
TTITLE7=Painting
TTITLE8=Empreintes
TTITLE9=Solar Wheel
TTITLE10=Red Bricks and Drum Heads
TTITLE11=Brushing with Brushes
TTITLE12=Blue on Blue
TTITLE13=Menuet
TTITLE14=Studentengespräche
EXTD=YEAR: 1997
EXTT0=
EXTT1=
EXTT2=
EXTT3=
EXTT4=
EXTT5=
EXTT6=
EXTT7=
EXTT8=
EXTT9=
EXTT10=
EXTT11=
EXTT12=
EXTT13=
EXTT14=
PLAYORDER=
